<svg fill="white" xmlns="http://www.w3.org/2000/svg" xmlns:xlink="http://www.w3.org/1999/xlink" version="1.1" x="0px" y="0px" viewBox="0 0 65 65" enable-background="new 0 0 65 65" xml:space="preserve"><g><rect x="55.2" y="32.9" width="5" height="1.5"/><rect x="48.9" y="32.9" width="1.5" height="1.5"/><rect x="52.1" y="32.9" width="1.5" height="1.5"/><rect x="43.1" y="32.9" width="4.2" height="1.5"/><rect x="55.2" y="39.3" width="5" height="1.5"/><rect x="52.1" y="39.3" width="1.5" height="1.5"/><rect x="43.1" y="39.3" width="7.4" height="1.5"/><rect x="17.5" y="39.3" width="5" height="1.5"/><rect x="11.2" y="39.3" width="1.5" height="1.5"/><rect x="14.4" y="39.3" width="1.5" height="1.5"/><rect x="5.4" y="39.3" width="4.2" height="1.5"/><rect x="17.5" y="32.9" width="5" height="1.5"/><rect x="14.4" y="32.9" width="1.5" height="1.5"/><rect x="5.4" y="32.9" width="7.4" height="1.5"/><path d="M65.3,52.7V1.7H-0.2v51.1h17v3.1h-4.3v7.5h10v-7.5h-4.3v-6.5h9.9l3.6,3.6v3h-0.5c-2.1,0-3.7,1.7-3.7,3.7   c0,2.1,1.7,3.7,3.7,3.7h2.5c2.1,0,3.7-1.7,3.7-3.7c0-2.1-1.7-3.7-3.7-3.7h-0.5v-3l3.6-3.6h9.9v6.5h-4.3v7.5h10v-7.5h-4.3v-3.1H65.3   z M21,61.8h-7v-4.5h7V61.8z M36,59.6c0,1.2-1,2.2-2.2,2.2h-2.5c-1.2,0-2.2-1-2.2-2.2s1-2.2,2.2-2.2h2.5C35,57.4,36,58.4,36,59.6z    M51,61.8h-7v-4.5h7V61.8z M63.8,3.2V13H1.3V3.2H63.8z M32.5,51.5l-3-3l3-3l3,3L32.5,51.5z M26.1,39.3v-4.7h12.7v4.7H26.1z    M36.8,47.8l-3.6-3.6v-3.5h7.1v-7.7H24.6v7.7h7.1v3.5l-3.6,3.6H16.8v3.4H1.3V14.5h62.5v36.7H48.2v-3.4H36.8z"/><path d="M44.2,10.6c1.4,0,2.6-1.2,2.6-2.6s-1.2-2.6-2.6-2.6S41.6,6.6,41.6,8S42.8,10.6,44.2,10.6z M44.2,6.9c0.6,0,1.1,0.5,1.1,1.1   c0,0.6-0.5,1.1-1.1,1.1c-0.6,0-1.1-0.5-1.1-1.1C43.1,7.4,43.6,6.9,44.2,6.9z"/><path d="M51.5,10.6c1.4,0,2.6-1.2,2.6-2.6S53,5.4,51.5,5.4c-1.4,0-2.6,1.2-2.6,2.6S50.1,10.6,51.5,10.6z M51.5,6.9   c0.6,0,1.1,0.5,1.1,1.1c0,0.6-0.5,1.1-1.1,1.1c-0.6,0-1.1-0.5-1.1-1.1C50.4,7.4,50.9,6.9,51.5,6.9z"/><path d="M58.8,10.6c1.4,0,2.6-1.2,2.6-2.6s-1.2-2.6-2.6-2.6S56.2,6.6,56.2,8S57.4,10.6,58.8,10.6z M58.8,6.9c0.6,0,1.1,0.5,1.1,1.1   c0,0.6-0.5,1.1-1.1,1.1c-0.6,0-1.1-0.5-1.1-1.1C57.7,7.4,58.2,6.9,58.8,6.9z"/><rect x="5.1" y="7.3" width="32.9" height="1.5"/><rect x="54.5" y="20" width="5.8" height="1.5"/><rect x="15.2" y="20" width="5.8" height="1.5"/><rect x="5.4" y="20" width="7.9" height="1.5"/><rect x="49.8" y="20" width="2.9" height="1.5"/><rect x="23.3" y="20" width="1.5" height="1.5"/><rect x="26.5" y="20" width="1.5" height="1.5"/><rect x="29.9" y="20" width="18" height="1.5"/><rect x="5.4" y="26.4" width="5.8" height="1.5"/><rect x="44.7" y="26.4" width="5.8" height="1.5"/><rect x="52.3" y="26.4" width="7.9" height="1.5"/><rect x="12.9" y="26.4" width="2.9" height="1.5"/><rect x="37.6" y="26.4" width="1.5" height="1.5"/><rect x="40.8" y="26.4" width="1.5" height="1.5"/><rect x="17.7" y="26.4" width="18" height="1.5"/></g></svg>
