<svg fill="white" xmlns="http://www.w3.org/2000/svg" xmlns:xlink="http://www.w3.org/1999/xlink" version="1.1" x="0px" y="0px" viewBox="0 0 65 65" enable-background="new 0 0 65 65" xml:space="preserve"><g><path d="M53.7,49.8c-0.1-0.3-0.1-0.7,0.1-0.9c0.2-0.3,0.5-0.4,0.8-0.4c1,0,2-0.6,2.3-1.6c0.4-1,0.1-2.1-0.6-2.8   c-0.2-0.2-0.4-0.5-0.3-0.9c0-0.3,0.2-0.6,0.5-0.8c0.9-0.5,1.4-1.5,1.3-2.5c-0.1-1-0.8-1.9-1.9-2.1c-0.3-0.1-0.6-0.3-0.7-0.6   c-0.1-0.3-0.1-0.6,0.1-0.9c0.5-0.8,0.6-1.8,0.1-2.6c-0.5-1-1.7-1.5-2.8-1.3c-0.4,0.1-0.7,0-1-0.3c-0.2-0.2-0.3-0.5-0.3-0.8   c0.1-0.7-0.1-1.4-0.6-1.9c-0.9-1-2.5-1.1-3.5-0.2c-0.2,0.2-0.5,0.2-0.7,0.2c-0.4,0-0.8-0.3-1-0.6c-0.4-1-1.3-1.6-2.3-1.6   c-1,0-1.9,0.6-2.3,1.6c-0.2,0.4-0.5,0.6-0.9,0.6c-0.2,0-0.4,0-0.7-0.2c-1-0.9-2.6-0.8-3.5,0.2c-0.5,0.5-0.7,1.2-0.6,1.9   c0,0.3-0.1,0.6-0.3,0.8c-0.2,0.3-0.6,0.4-1,0.3c-1.1-0.3-2.3,0.3-2.8,1.3c-0.4,0.8-0.4,1.8,0.1,2.6c0.2,0.3,0.2,0.6,0.1,0.9   c-0.1,0.3-0.4,0.5-0.7,0.6c-1,0.3-1.7,1.1-1.9,2.1c-0.1,1,0.4,2,1.3,2.5c0.3,0.2,0.5,0.4,0.5,0.8c0,0.3-0.1,0.6-0.3,0.9   c-0.8,0.7-1,1.8-0.7,2.7c0.4,1,1.3,1.6,2.3,1.6c0.3,0,0.6,0.2,0.8,0.4c0.2,0.3,0.2,0.6,0.1,0.9c-0.3,0.7-0.2,1.5,0.2,2.1l-3.8,11   l4.6-1l3,3.7l3.3-9.8c0.1,0,0.1,0,0.2,0c0.8,0,1.6-0.4,2-1c0.4-0.5,1.3-0.5,1.7,0c0.5,0.7,1.2,1.1,2,1.1c0.1,0,0.1,0,0.2,0l3.3,9.8   l3-3.7l4.6,1l-3.7-11C53.8,51.3,53.9,50.5,53.7,49.8z M36.4,62.6l-1.8-2.3l-2.9,0.6l2.7-8c0.7,0.3,1.4,0.3,2.1-0.1   c0.5-0.3,1.4,0,1.5,0.8c0.1,0.7,0.4,1.2,0.9,1.6L36.4,62.6z M45.4,53.9c-0.5-0.7-1.2-1.1-2.1-1.1c-0.8,0-1.6,0.4-2,1   c-0.3,0.4-0.6,0.4-0.8,0.4c-0.4,0-0.9-0.3-1-0.9c-0.2-1.2-1.2-2.2-2.5-2.2c-0.4,0-0.8,0.1-1.1,0.3c-0.5,0.2-1,0.1-1.3-0.3   c-0.1-0.2-0.3-0.5-0.1-0.9c0.3-0.8,0.2-1.6-0.3-2.3c-0.5-0.7-1.2-1.1-2-1.1c-0.6,0-0.9-0.5-0.9-0.7c-0.1-0.2-0.2-0.7,0.3-1.1   c0.6-0.5,0.9-1.4,0.8-2.2c-0.1-0.8-0.6-1.5-1.3-1.9c-0.6-0.3-0.5-0.9-0.5-1c0-0.2,0.1-0.7,0.8-0.9c0.8-0.2,1.4-0.8,1.7-1.5   c0.3-0.8,0.2-1.6-0.3-2.3c-0.3-0.5-0.1-0.9-0.1-1c0.2-0.3,0.6-0.6,1.1-0.5c0.9,0.2,1.8-0.1,2.4-0.8c0.5-0.5,0.7-1.2,0.6-1.9   c0-0.4,0.1-0.6,0.2-0.8c0.4-0.4,1-0.5,1.4-0.1c0.5,0.4,1,0.6,1.6,0.6c1,0,2-0.6,2.3-1.6c0.2-0.6,0.8-0.6,0.9-0.6   c0.2,0,0.7,0,0.9,0.6c0.4,1,1.3,1.6,2.3,1.6c0.6,0,1.2-0.2,1.6-0.6c0.4-0.4,1.1-0.3,1.4,0.1c0.1,0.1,0.3,0.4,0.2,0.8   c-0.1,0.7,0.1,1.4,0.6,2c0.6,0.7,1.5,1,2.4,0.8c0.5-0.1,1,0.2,1.1,0.5c0.1,0.2,0.3,0.6-0.1,1c-0.5,0.7-0.6,1.5-0.3,2.3   c0.3,0.8,0.9,1.3,1.7,1.6c0.6,0.2,0.7,0.7,0.7,0.9c0,0.2,0,0.7-0.5,1c-0.7,0.4-1.2,1.1-1.3,1.9c-0.1,0.8,0.2,1.6,0.8,2.2   c0.5,0.4,0.3,1,0.3,1.1c-0.1,0.2-0.3,0.6-0.9,0.7c-0.8,0-1.6,0.4-2,1.1c-0.5,0.7-0.6,1.5-0.3,2.3c0.2,0.4,0,0.8-0.1,0.9   c-0.3,0.4-0.8,0.6-1.3,0.3c-0.4-0.2-0.7-0.3-1.1-0.3c-1.2,0-2.3,0.9-2.5,2.2c-0.1,0.6-0.6,0.9-1,0.9C46,54.3,45.6,54.3,45.4,53.9z    M52,60.3l-1.8,2.3l-2.4-7.3c0.5-0.4,0.8-0.9,0.9-1.6c0.1-0.8,0.9-1,1.5-0.8c0.7,0.3,1.4,0.3,2.1,0.1l2.7,7.9L52,60.3z"/><path d="M50.7,41.5c0-4-3.3-7.3-7.3-7.3c-4,0-7.3,3.3-7.3,7.3c0,4,3.3,7.3,7.3,7.3C47.4,48.8,50.7,45.5,50.7,41.5z M43.4,47.3   c-3.2,0-5.8-2.6-5.8-5.8c0-3.2,2.6-5.8,5.8-5.8c3.2,0,5.8,2.6,5.8,5.8C49.2,44.7,46.6,47.3,43.4,47.3z"/><path d="M60.4,12.6H29.6v12.1h30.8V12.6z M58.9,23.2H31.1v-9.1h27.8V23.2z"/><path d="M26.7,12.6H4.6v12.1h22.1V12.6z M14,18.7l-7.9,4.1v-8.2L14,18.7z M8.5,14.1h14.4l-7.2,3.7L8.5,14.1z M15.7,19.5l7.2,3.7   H8.5L15.7,19.5z M17.3,18.7l7.9-4.1v8.2L17.3,18.7z"/><path d="M0.1-0.6v53.9h30v-1.5H1.6V9.3h61.8v42.5h-6.7v1.5h8.2V-0.6H0.1z M1.6,7.8V0.9h61.8v6.9H1.6z"/><rect x="5.4" y="3.7" width="1.5" height="1.5"/><rect x="9.2" y="3.7" width="1.5" height="1.5"/><rect x="13" y="3.7" width="1.5" height="1.5"/><rect x="18.7" y="3.7" width="41.7" height="1.5"/><rect x="4.7" y="35.1" width="22" height="1.5"/><rect x="4.7" y="40" width="20.7" height="1.5"/><rect x="4.7" y="44.8" width="16.5" height="1.5"/></g></svg>
