<svg fill="white" xmlns="http://www.w3.org/2000/svg" xmlns:xlink="http://www.w3.org/1999/xlink" version="1.1" x="0px" y="0px" viewBox="0 0 65 65" enable-background="new 0 0 65 65" xml:space="preserve"><path d="M62.7,56.7V48h-8c0.4-1,0.6-2.2,0.7-3.3h7.4v-8.8c1.5-0.3,2.6-1.7,2.6-3.3c0-0.9-0.3-1.7-1-2.4c-0.6-0.6-1.5-1-2.4-1  c-1.8,0-3.3,1.5-3.3,3.3c0,1.6,1.1,2.9,2.6,3.3v7.3h-5.9c-0.5-4.7-4.3-8.4-8.9-9V20h7.3c0.3,1.5,1.7,2.6,3.3,2.6  c1.8,0,3.3-1.5,3.3-3.3c0-1.8-1.5-3.3-3.3-3.3c-1.6,0-2.9,1.1-3.3,2.6h-8.8v15.6c-0.6,0-1.3,0.1-1.8,0.2c-0.3-0.8-0.6-1.6-1.1-2.4  V15.2l8-7.4c0.5,0.4,1.2,0.6,1.9,0.6c1.8,0,3.3-1.5,3.3-3.3c0-1.8-1.5-3.3-3.3-3.3c-1.8,0-3.3,1.5-3.3,3.3c0,0.6,0.2,1.2,0.5,1.7  l-8.5,7.9V30c-0.8-0.8-1.8-1.5-2.9-2V8.3c1.5-0.3,2.6-1.7,2.6-3.3c0-1.8-1.5-3.3-3.3-3.3c-1.8,0-3.3,1.5-3.3,3.3  c0,1.6,1.1,2.9,2.6,3.3v19.2c-0.9-0.3-1.9-0.4-2.9-0.4c-1.5,0-3,0.3-4.3,1V8.3c1.5-0.3,2.6-1.7,2.6-3.3c0-1.8-1.5-3.3-3.3-3.3  c-1.8,0-3.3,1.5-3.3,3.3c0,1.6,1.1,2.9,2.6,3.3v20.5c-1.1,0.8-2.1,1.8-2.9,3V14.5L16,6.7c0.3-0.5,0.5-1,0.5-1.7  c0-1.8-1.5-3.3-3.3-3.3c-1.8,0-3.3,1.5-3.3,3.3c0,1.8,1.5,3.3,3.3,3.3c0.7,0,1.3-0.2,1.9-0.6l8,7.4v18.5c-0.4-0.1-0.9-0.2-1.4-0.2  c-0.5,0-1,0-1.4,0.1V18.5h-8.8c-0.3-1.5-1.7-2.6-3.3-2.6c-1.8,0-3.3,1.5-3.3,3.3c0,1.8,1.5,3.3,3.3,3.3c1.6,0,2.9-1.1,3.3-2.6h7.3  v14.1c-2.5,1.1-3.5,3.6-3.8,5.4c-1.9,0.6-3.5,1.9-4.4,3.7H3.8v-7.3c1.5-0.3,2.6-1.7,2.6-3.3c0-1.8-1.5-3.3-3.3-3.3  c-1.8,0-3.3,1.5-3.3,3.3c0,1.6,1.1,2.9,2.6,3.3v8.8h7.6c-0.1,0.6-0.2,1.1-0.2,1.7c0,0.5,0.1,1.1,0.2,1.6H2.3v8.8  c-1.5,0.3-2.6,1.7-2.6,3.3c0,1.8,1.5,3.3,3.3,3.3c1.8,0,3.3-1.5,3.3-3.3c0-1.6-1.1-2.9-2.6-3.3v-7.3h6.6c1.2,2.4,3.6,4.1,6.5,4.1  c0.9,0,1.7-0.1,2.5-0.4c1.1,1.2,2.8,1.9,4.5,1.9c1.4,0,2.7-0.5,3.8-1.3c0.9,1.1,2.9,2.9,6,2.9c3.8,0,5.7-2.1,6.4-3.3  c1.5,0.8,3.2,1.2,4.9,1.2c3.8,0,7.1-2.1,8.9-5.1h7.2v7.3c-1.5,0.3-2.6,1.7-2.6,3.3c0,1.8,1.5,3.3,3.3,3.3c1.8,0,3.3-1.5,3.3-3.3  C65.2,58.4,64.1,57.1,62.7,56.7z M60.1,32.6c0-1,0.8-1.8,1.8-1.8c0.5,0,1,0.2,1.3,0.5c0.3,0.3,0.5,0.8,0.5,1.3c0,1-0.8,1.8-1.8,1.8  C60.9,34.5,60.1,33.6,60.1,32.6z M56.8,17.4c1,0,1.8,0.8,1.8,1.8c0,1-0.8,1.8-1.8,1.8c-1,0-1.8-0.8-1.8-1.8  C55,18.3,55.8,17.4,56.8,17.4z M51.9,3.2c1,0,1.8,0.8,1.8,1.8c0,1-0.8,1.8-1.8,1.8C50.8,6.9,50,6,50,5C50,4,50.8,3.2,51.9,3.2z   M35,5c0-1,0.8-1.8,1.8-1.8c1,0,1.8,0.8,1.8,1.8c0,1-0.8,1.8-1.8,1.8C35.8,6.9,35,6,35,5z M26.3,5c0-1,0.8-1.8,1.8-1.8S30,4,30,5  c0,1-0.8,1.8-1.8,1.8S26.3,6,26.3,5z M13.2,6.9c-1,0-1.8-0.8-1.8-1.8c0-1,0.8-1.8,1.8-1.8C14.2,3.2,15,4,15,5  C15,6,14.2,6.9,13.2,6.9z M8.2,21.1c-1,0-1.8-0.8-1.8-1.8c0-1,0.8-1.8,1.8-1.8c1,0,1.8,0.8,1.8,1.8C10,20.3,9.2,21.1,8.2,21.1z   M1.3,32.6c0-1,0.8-1.8,1.8-1.8s1.8,0.8,1.8,1.8c0,1-0.8,1.8-1.8,1.8S1.3,33.6,1.3,32.6z M4.9,60c0,1-0.8,1.8-1.8,1.8S1.3,61,1.3,60  c0-1,0.8-1.8,1.8-1.8S4.9,59,4.9,60z M45,53.1c-1.7,0-3.4-0.5-4.8-1.4l-0.8-0.5L39.1,52c0,0-1.2,3.1-5.4,3.1c-3.4,0-5.2-2.8-5.3-2.9  l-0.5-0.8l-0.7,0.7c-0.9,0.9-2.1,1.5-3.4,1.5c-2.1,0-4-1.4-4.5-3.4l-1.4,0.4c0.1,0.5,0.3,0.9,0.5,1.3c-0.5,0.1-1,0.2-1.5,0.2  c-3.1,0-5.7-2.5-5.7-5.7c0-2.7,1.9-5,4.5-5.6l0.6-0.1l0-0.6c0-0.2,0.4-5.1,5.3-5.1c1.1,0,2.1,0.4,2.1,0.4l0.8,0.4l0.2-0.9  c1-3.8,4.5-6.5,8.5-6.5c4.1,0,7.7,2.9,8.5,6.8l0.2,0.7l0.7-0.2c0.4-0.1,1.7-0.3,2.4-0.3c4.8,0,8.8,3.9,8.8,8.8  C53.8,49.2,49.9,53.1,45,53.1z M61.9,61.8c-1,0-1.8-0.8-1.8-1.8c0-1,0.8-1.8,1.8-1.8c1,0,1.8,0.8,1.8,1.8  C63.7,61,62.9,61.8,61.9,61.8z"/></svg>
