<svg fill="white" xmlns="http://www.w3.org/2000/svg" xmlns:xlink="http://www.w3.org/1999/xlink" version="1.1" x="0px" y="0px" viewBox="0 0 65 65" enable-background="new 0 0 65 65" xml:space="preserve"><g><rect x="7.5" y="18.2" width="7.9" height="1.5"/><rect x="17.2" y="18.2" width="1.5" height="1.5"/><rect x="20.4" y="18.2" width="1.5" height="1.5"/><rect x="7.5" y="22.8" width="4.8" height="1.5"/><rect x="14.1" y="22.8" width="2.9" height="1.5"/><rect x="18.9" y="22.8" width="11.1" height="1.5"/><rect x="39.3" y="41.5" width="5.6" height="1.5"/><rect x="26.6" y="41.5" width="10.9" height="1.5"/><rect x="7.5" y="41.5" width="17.1" height="1.5"/><rect x="41.2" y="32.1" width="1.5" height="1.5"/><rect x="44.4" y="32.1" width="1.5" height="1.5"/><rect x="24.5" y="32.1" width="14.7" height="1.5"/><rect x="17" y="32.1" width="5.8" height="1.5"/><rect x="47.7" y="32.1" width="9.8" height="1.5"/><rect x="17" y="27.5" width="7.6" height="1.5"/><rect x="38.9" y="27.5" width="18.5" height="1.5"/><rect x="26.3" y="27.5" width="1.5" height="1.5"/><rect x="29.5" y="27.5" width="1.5" height="1.5"/><rect x="32.7" y="27.5" width="1.5" height="1.5"/><rect x="35.9" y="27.5" width="1.5" height="1.5"/><rect x="17.2" y="36.8" width="11.3" height="1.5"/><rect x="30.3" y="36.8" width="6.2" height="1.5"/><rect x="10.7" y="36.8" width="1.5" height="1.5"/><rect x="7.5" y="36.8" width="1.5" height="1.5"/><rect x="13.9" y="36.8" width="1.5" height="1.5"/><path d="M62.5,4.6h-60C1,4.6-0.2,5.8-0.2,7.3v43.2c0,1.5,1.2,2.8,2.8,2.8h21.1v5.7h-4.5v1.5h26.8v-1.5h-4.5v-5.7h21.1   c1.5,0,2.8-1.2,2.8-2.8V7.3C65.3,5.8,64,4.6,62.5,4.6z M39.9,58.9H25.1v-5.7h14.8V58.9z M63.8,50.5c0,0.7-0.6,1.3-1.3,1.3h-60   c-0.7,0-1.2-0.6-1.2-1.3v-1.9h62.5V50.5z M63.8,47.1H1.3V13.3h62.5V47.1z M63.8,11.8H1.3V7.3c0-0.7,0.6-1.3,1.2-1.3h60   c0.7,0,1.3,0.6,1.3,1.3V11.8z"/><rect x="54.6" y="8.4" width="1.5" height="1.5"/><rect x="58.4" y="8.4" width="1.5" height="1.5"/><rect x="50.8" y="8.4" width="1.5" height="1.5"/><rect x="5.7" y="8.4" width="40.1" height="1.5"/></g></svg>
