<svg fill="white" xmlns="http://www.w3.org/2000/svg" xmlns:xlink="http://www.w3.org/1999/xlink" version="1.1" x="0px" y="0px" viewBox="0 0 65 65" enable-background="new 0 0 65 65" xml:space="preserve"><g><path d="M15.5,2.5C7.9,2.5-0.2,4.7-0.2,8.7V43c0,3.9,7.6,6,15,6.1v6.6c-1.2,0.3-2.1,1.5-2.1,2.8c0,0,0,0.1,0,0.1L4.8,61l0.4,1.4   l7.9-2.4c0.5,0.8,1.4,1.4,2.5,1.4c1,0,1.9-0.6,2.5-1.4l7.9,2.4l0.4-1.4l-7.9-2.4c0,0,0-0.1,0-0.1c0-1.3-0.9-2.5-2.1-2.8v-6.6   c7.4-0.1,15-2.3,15-6.1V8.7C31.3,4.7,23.2,2.5,15.5,2.5z M16.9,58.5c0,0.8-0.6,1.4-1.4,1.4c-0.8,0-1.4-0.6-1.4-1.4s0.6-1.4,1.4-1.4   C16.3,57.1,16.9,57.8,16.9,58.5z M15.5,47.7c-8.4,0-14.3-2.4-14.3-4.6v-5.6c2.7,2.2,8.6,3.4,14.3,3.4s11.6-1.2,14.3-3.4V43   C29.8,45.2,24,47.7,15.5,47.7z M15.5,39.4c-8.4,0-14.3-2.4-14.3-4.6v-5.8c2.7,2.2,8.6,3.4,14.3,3.4s11.6-1.2,14.3-3.4v5.8   C29.8,36.9,24,39.4,15.5,39.4z M15.5,30.8c-8.4,0-14.3-2.4-14.3-4.6v-5.8c2.7,2.2,8.6,3.4,14.3,3.4s11.6-1.2,14.3-3.4v5.8   C29.8,28.4,24,30.8,15.5,30.8z M15.5,22.2c-8.4,0-14.3-2.4-14.3-4.6v-6.2c2.7,2.2,8.6,3.4,14.3,3.4s11.6-1.2,14.3-3.4v6.2   C29.8,19.8,24,22.2,15.5,22.2z M15.5,13.3c-8.4,0-14.3-2.4-14.3-4.6S7.1,4,15.5,4C24,4,29.8,6.5,29.8,8.7S24,13.3,15.5,13.3z"/><path d="M49.5,11.5c-7.7,0-15.8,2.1-15.8,6.1V43c0,3.9,7.6,6,15,6.1v6.6c-1.2,0.3-2.1,1.5-2.1,2.8c0,0,0,0.1,0,0.1L38.7,61l0.4,1.4   l7.9-2.4c0.5,0.8,1.4,1.4,2.5,1.4c1,0,1.9-0.6,2.5-1.4l7.9,2.4l0.4-1.4l-7.9-2.4c0,0,0-0.1,0-0.1c0-1.3-0.9-2.5-2.1-2.8v-6.6   c7.4-0.1,15-2.3,15-6.1V17.6C65.3,13.6,57.1,11.5,49.5,11.5z M49.5,13c8.4,0,14.3,2.4,14.3,4.6c0,2.2-5.9,4.6-14.3,4.6   c-8.4,0-14.3-2.4-14.3-4.6C35.2,15.4,41,13,49.5,13z M50.9,58.5c0,0.8-0.6,1.4-1.4,1.4c-0.8,0-1.4-0.6-1.4-1.4s0.6-1.4,1.4-1.4   C50.2,57.1,50.9,57.8,50.9,58.5z M49.5,47.7c-8.4,0-14.3-2.4-14.3-4.6v-5.6c2.7,2.2,8.6,3.4,14.3,3.4c5.7,0,11.6-1.2,14.3-3.4V43   C63.8,45.2,57.9,47.7,49.5,47.7z M49.5,39.4c-8.4,0-14.3-2.4-14.3-4.6v-5.8c2.7,2.2,8.6,3.4,14.3,3.4c5.7,0,11.6-1.2,14.3-3.4v5.8   C63.8,36.9,57.9,39.4,49.5,39.4z M49.5,30.8c-8.4,0-14.3-2.4-14.3-4.6v-5.8c2.7,2.2,8.6,3.4,14.3,3.4c5.7,0,11.6-1.2,14.3-3.4v5.8   C63.8,28.4,57.9,30.8,49.5,30.8z"/></g></svg>
