<svg fill="white" xmlns="http://www.w3.org/2000/svg" xmlns:xlink="http://www.w3.org/1999/xlink" version="1.1" x="0px" y="0px" viewBox="0 0 65 65" enable-background="new 0 0 65 65" xml:space="preserve"><g><rect x="14.9" y="9.6" width="1.5" height="1.5"/><rect x="7.9" y="9.6" width="1.5" height="1.5"/><rect x="11.4" y="9.6" width="1.5" height="1.5"/><rect x="52" y="28" width="3.8" height="1.5"/><path d="M56.2,54.9h-4.7c-0.4,0-0.7,0.3-0.7,0.7c0,0.4,0.3,0.7,0.7,0.7h4.7c0.4,0,0.7-0.3,0.7-0.7C57,55.2,56.6,54.9,56.2,54.9z"/><path d="M62.8,25.8h-3.2V9.1c0-1.5-1.2-2.8-2.8-2.8H6.4c-1.5,0-2.8,1.2-2.8,2.8v34.7H0v3l2.8,3.9h40v5.9c0,1.2,1,2.2,2.2,2.2h17.8   c1.2,0,2.2-1,2.2-2.2V28C65,26.8,64,25.8,62.8,25.8z M63.5,28v2.4H44.2V28c0-0.4,0.3-0.7,0.7-0.7h17.8C63.2,27.2,63.5,27.6,63.5,28   z M54.2,25.8H45c-1,0-1.9,0.7-2.1,1.7h-0.7v-8.7h12.1V25.8z M44.2,31.9h19.3v20.7H44.2V31.9z M6.4,7.8h50.4c0.7,0,1.3,0.6,1.3,1.3   v3.6h-53V9.1C5.1,8.4,5.7,7.8,6.4,7.8z M5.1,14.1h53v11.6h-2.4v-8.6H40.6v11.7h2.1v14.8H5.1V14.1z M3.5,49.1l-2.1-2.9v-1h41.3v3.9   H3.5z M62.8,57.2H45c-0.4,0-0.7-0.3-0.7-0.7V54h19.3v2.5C63.5,56.9,63.2,57.2,62.8,57.2z"/><path d="M22.6,17.2H7.5v11.7h15.1V17.2z M21.1,27.4H9v-8.7h12.1V27.4z"/><path d="M24,28.9h15.1V17.2H24V28.9z M25.5,18.7h12.1v8.7H25.5V18.7z"/><path d="M7.5,40.7h31.7v-9H7.5V40.7z M9,33.2h28.7v6.1H9V33.2z"/><path d="M53.1,33.4h-7.6V40h7.6V33.4z M51.6,38.5H47v-3.6h4.6V38.5z"/><path d="M54.6,33.4V40h7.6v-6.6H54.6z M60.7,38.5h-4.6v-3.6h4.6V38.5z"/><path d="M45.5,48.5h16.6v-6.8H45.5V48.5z M47,43.2h13.7V47H47V43.2z"/></g></svg>
